<svg width="20" height="20" viewBox="0 0 20 20" fill="none" xmlns="http://www.w3.org/2000/svg">
<path d="M18.88 4.83604L10.63 0.695566C10.4371 0.597913 10.2204 0.546692 10 0.546692C9.77965 0.546692 9.56289 0.597913 9.37 0.695566L1.12 4.83604C0.913567 4.93957 0.741297 5.09208 0.621226 5.27759C0.501154 5.4631 0.437698 5.67478 0.4375 5.89049V14.1096C0.437698 14.3253 0.501154 14.5369 0.621226 14.7224C0.741297 14.908 0.913567 15.0605 1.12 15.164L9.37 19.3045C9.56295 19.402 9.77968 19.4531 10 19.4531C10.2203 19.4531 10.4371 19.402 10.63 19.3045L18.88 15.164C19.0864 15.0605 19.2587 14.908 19.3788 14.7224C19.4988 14.5369 19.5623 14.3253 19.5625 14.1096V5.89049C19.5623 5.67478 19.4988 5.4631 19.3788 5.27759C19.2587 5.09208 19.0864 4.93957 18.88 4.83604ZM9.90625 1.59963C9.93384 1.58579 9.96479 1.57853 9.99625 1.57853C10.0277 1.57853 10.0587 1.58579 10.0863 1.59963L17.9228 5.53127L14.7409 7.12713L6.81719 3.15166L9.90625 1.59963ZM9.4375 18.1641L1.65625 14.2599C1.6275 14.2447 1.60367 14.2228 1.5872 14.1964C1.57073 14.1699 1.5622 14.14 1.5625 14.1096V6.44736L9.4375 10.4005V18.1641ZM2.07719 5.53127L5.64625 3.73947L13.5691 7.71494L10 9.50502L2.07719 5.53127ZM18.4375 14.1096C18.4378 14.14 18.4293 14.1699 18.4128 14.1964C18.3963 14.2228 18.3725 14.2447 18.3438 14.2599L10.5625 18.1641V10.3988L13.9375 8.70494V12.0625C13.9375 12.1993 13.9968 12.3304 14.1023 12.4271C14.2077 12.5238 14.3508 12.5781 14.5 12.5781C14.6492 12.5781 14.7923 12.5238 14.8977 12.4271C15.0032 12.3304 15.0625 12.1993 15.0625 12.0625V8.14119L18.4375 6.44736V14.1096Z" fill="black" fill-opacity="0.75"/>
</svg>
